<svg width="34" height="34" viewBox="0 0 34 34" fill="none" xmlns="http://www.w3.org/2000/svg">
<path d="M8.28998 30.2205C8.28998 30.7947 8.74115 31.2595 9.34271 31.2595C17.5458 31.2595 23.9716 25.6814 23.9716 16.9998C23.9716 13.1716 20.8134 10.0134 16.999 10.0134C15.6044 10.0134 14.3056 10.4783 13.2802 11.2576C15.2763 7.21069 19.542 4.80444 24.6552 4.80444C25.2568 4.80444 25.708 4.3396 25.708 3.76538C25.708 3.19116 25.2568 2.73999 24.6552 2.73999C16.4521 2.73999 10.04 8.30444 10.04 16.9998C10.04 20.8142 13.1982 23.9724 16.999 23.9724C18.4072 23.9724 19.6923 23.5076 20.7177 22.742C18.7216 26.7888 14.4423 29.1951 9.34271 29.1951C8.74115 29.1951 8.28998 29.6462 8.28998 30.2205ZM15.0165 16.9998C15.0165 15.906 15.9189 15.0173 16.999 15.0173C18.0927 15.0173 18.9814 15.906 18.9814 16.9998C18.9814 18.0662 18.0927 18.9822 16.999 18.9822C15.9189 18.9822 15.0165 18.0798 15.0165 16.9998Z" fill="currentColor"/>
</svg>
