<svg width="34" height="34" viewBox="0 0 34 34" fill="none" xmlns="http://www.w3.org/2000/svg">
<path d="M27.3616 15.6929C27.3616 15.3648 27.2522 15.0776 26.9924 14.8042L17.9143 5.7124C17.6545 5.43896 17.3401 5.30224 16.9983 5.30224C16.6565 5.30224 16.342 5.43896 16.0823 5.7124L7.01782 14.8042C6.75806 15.0776 6.63501 15.3648 6.63501 15.6929C6.63501 16.3628 7.1272 16.8823 7.81079 16.8823C8.13892 16.8823 8.46704 16.773 8.67212 16.5542L11.7893 13.4917L16.6975 8.11865L15.9182 7.84521L15.7815 11.9194V29.939C15.7815 30.6499 16.2873 31.1421 16.9983 31.1421C17.7092 31.1421 18.2151 30.6499 18.2151 29.939V11.9194L18.0784 7.84521L17.3127 8.11865L22.2073 13.4917L25.3245 16.5542C25.5432 16.773 25.8577 16.8823 26.1858 16.8823C26.8694 16.8823 27.3616 16.3628 27.3616 15.6929ZM27.3616 4.08545C27.3616 3.37451 26.883 2.85498 26.1858 2.85498H7.83813C7.1272 2.85498 6.63501 3.37451 6.63501 4.08545C6.63501 4.79638 7.1272 5.30224 7.83813 5.30224H26.1858C26.883 5.30224 27.3616 4.79638 27.3616 4.08545Z" fill="currentColor"/>
</svg>
