<svg width="34" height="34" viewBox="0 0 34 34" fill="none" xmlns="http://www.w3.org/2000/svg">
<path d="M24.5 6C27.8137 6 30.5 8.68629 30.5 12C30.5 15.3137 27.8137 18 24.5 18C21.1863 18 18.5 15.3137 18.5 12C18.5 8.68629 21.1863 6 24.5 6ZM24.5 8C22.2909 8 20.5 9.79086 20.5 12C20.5 14.2091 22.2909 16 24.5 16C26.7091 16 28.5 14.2091 28.5 12C28.5 9.79086 26.7091 8 24.5 8Z" fill="white"/>
<path d="M24.1159 6.04004C26.063 6.05141 27.8171 7.10746 28.8493 8.71289L29.0241 9.00195C30.683 11.9197 29.6087 15.5785 26.9518 17.457L26.6813 17.6387C24.2449 19.1891 21.5894 21.1476 19.3395 23.3447C17.0783 25.5531 15.2939 27.9377 14.4958 30.332C14.3123 30.8821 13.7177 31.1795 13.1676 30.9961C12.6178 30.8126 12.3203 30.218 12.5036 29.668C13.4525 26.8211 15.4999 24.1582 17.8717 21.8418C20.2552 19.5142 23.0359 17.4692 25.5534 15.8672L25.5749 15.8525C27.2618 15.3829 28.4997 13.8367 28.4997 12C28.4997 9.79086 26.7088 8 24.4997 8C24.074 8.00004 23.6638 8.06625 23.279 8.18945C18.1426 8.58385 10.2859 9.89313 4.11979 13.0918L3.50553 13.4199C2.99748 13.6991 2.35915 13.5138 2.07975 13.0059C1.80054 12.4979 1.98601 11.8596 2.49381 11.5801L3.14518 11.2324C9.93313 7.7092 18.5038 6.39658 23.7243 6.05176L24.1159 6.04004Z" fill="currentColor"/>
</svg>
