<svg width="34" height="34" viewBox="0 0 34 34" fill="none" xmlns="http://www.w3.org/2000/svg">
<path d="M21.021 30.2981C20.8843 31.8704 19.1206 32.9094 17.0015 32.9094C14.8687 32.9094 13.0913 31.8704 12.9956 30.2981H21.021ZM21.3354 27.345C21.7865 27.345 22.1284 27.7005 22.1284 28.1379C22.1284 28.589 21.7865 28.9446 21.3354 28.9446H12.6812C12.23 28.9446 11.8745 28.589 11.8745 28.1379C11.8745 27.7005 12.23 27.345 12.6812 27.345H21.3354ZM17.0015 1.09497C22.1148 1.09497 26.1479 4.80005 26.1479 9.51685C26.1479 14.7669 22.7027 16.0657 22.1421 25.1848C22.1011 25.677 21.8139 25.9915 21.2808 25.9915H12.7222C12.2027 25.9915 11.9019 25.677 11.8745 25.1848C11.314 16.0657 7.85498 14.7669 7.85498 9.51685C7.85498 4.80005 11.8882 1.09497 17.0015 1.09497Z" fill="currentColor"/>
</svg>
