<svg width="34" height="34" viewBox="0 0 34 34" fill="none" xmlns="http://www.w3.org/2000/svg">
<path d="M3.84955 25.9202H30.1405C32.1093 25.9202 33.2988 24.7308 33.2988 22.762V6.3695C33.2988 4.40075 32.1093 3.22498 30.1405 3.22498H3.84955C1.89447 3.22498 0.705017 4.40075 0.705017 6.3695V22.762C0.705017 24.7308 1.89447 25.9202 3.84955 25.9202ZM3.49408 19.8909C3.08393 19.8909 2.90619 19.7406 2.90619 19.3031V6.41052C2.90619 5.79528 3.289 5.42614 3.89057 5.42614H30.1132C30.7148 5.42614 31.0976 5.79528 31.0976 6.41052V19.3031C31.0976 19.7406 30.9062 19.8909 30.496 19.8909H3.49408ZM12.6816 29.1741H21.3222V25.7425H12.6816V29.1741ZM12.5995 30.7738H21.4042C22.0058 30.7738 22.498 30.2816 22.498 29.6663C22.498 29.0511 22.0058 28.5589 21.4042 28.5589H12.5995C11.998 28.5589 11.4921 29.0511 11.4921 29.6663C11.4921 30.2816 11.998 30.7738 12.5995 30.7738Z" fill="currentColor"/>
</svg>
