<svg width="34" height="34" viewBox="0 0 34 34" fill="none" xmlns="http://www.w3.org/2000/svg">
<path d="M17.0008 30.756C17.3836 30.756 17.699 31.0704 17.699 31.4669C17.6989 31.8496 17.3835 32.1642 17.0008 32.1642C16.6046 32.1639 16.291 31.8494 16.2908 31.4669C16.2908 31.0706 16.6045 30.7562 17.0008 30.756ZM14.4715 30.5372C14.868 30.5372 15.1824 30.838 15.1824 31.2345C15.1823 31.6309 14.8679 31.9318 14.4715 31.9318C14.089 31.9315 13.7744 31.6307 13.7742 31.2345C13.7742 30.8382 14.0889 30.5375 14.4715 30.5372ZM19.5164 30.5372C19.8992 30.5372 20.2147 30.838 20.2147 31.2345C20.2145 31.6309 19.8991 31.9318 19.5164 31.9318C19.1202 31.9315 18.8202 31.6307 18.8201 31.2345C18.8201 30.8382 19.1201 30.5375 19.5164 30.5372ZM12.0379 29.881C12.4344 29.881 12.7488 30.1954 12.7488 30.5919C12.7487 30.9746 12.4343 31.2892 12.0379 31.2892C11.6554 31.2889 11.3418 30.9744 11.3416 30.5919C11.3416 30.1956 11.6553 29.8812 12.0379 29.881ZM21.95 29.881C22.3328 29.881 22.6483 30.1954 22.6483 30.5919C22.6481 30.9746 22.3327 31.2892 21.95 31.2892C21.5538 31.2889 21.2402 30.9745 21.2401 30.5919C21.2401 30.1956 21.5537 29.8812 21.95 29.881ZM3.63068 3.64465C4.0408 3.22101 4.72348 3.23467 5.13361 3.64465L30.3729 28.8693C30.7827 29.2793 30.7828 29.9494 30.3729 30.3595C29.9765 30.7695 29.2791 30.7557 28.8826 30.3595L3.63068 5.13489C3.23419 4.7384 3.23419 4.04114 3.63068 3.64465ZM9.75568 28.8009C10.1383 28.8012 10.452 29.1018 10.452 29.4982C10.4519 29.8943 10.1382 30.1952 9.75568 30.1954C9.35925 30.1954 9.05754 29.8945 9.05743 29.4982C9.05743 29.1017 9.35919 28.8009 9.75568 28.8009ZM24.2332 28.8009C24.6297 28.8009 24.9451 29.1017 24.9451 29.4982C24.945 29.8945 24.6296 30.1954 24.2332 30.1954C23.8507 30.1952 23.537 29.8943 23.5369 29.4982C23.5369 29.1018 23.8506 28.8011 24.2332 28.8009ZM7.69122 27.3517C8.07381 27.3519 8.38751 27.6663 8.38751 28.0626C8.38737 28.4451 8.07373 28.7596 7.69122 28.7599C7.29482 28.7599 6.98043 28.4453 6.98029 28.0626C6.98029 27.6661 7.29473 27.3517 7.69122 27.3517ZM8.51935 12.2726C7.73695 13.6687 7.29376 15.2825 7.29376 17.0021C7.29387 22.4158 11.587 26.7088 17.0008 26.7091C18.7243 26.7091 20.34 26.2632 21.7361 25.4757L22.702 26.4406C21.0443 27.4571 19.0905 28.0353 17.0008 28.0353C10.8488 28.035 5.95501 23.1404 5.9549 17.0021C5.9549 14.9103 6.52961 12.9563 7.54279 11.298L8.51935 12.2726ZM5.90021 25.5743C6.29645 25.5746 6.59747 25.8753 6.59747 26.2716C6.59735 26.6678 6.29637 26.9686 5.90021 26.9689C5.50381 26.9689 5.20209 26.668 5.20197 26.2716C5.20197 25.8751 5.50373 25.5743 5.90021 25.5743ZM4.45001 23.4962C4.83282 23.4962 5.14825 23.797 5.14825 24.1935C5.14814 24.5899 4.83275 24.8907 4.45001 24.8907C4.05383 24.8905 3.73919 24.5897 3.73907 24.1935C3.73907 23.7971 4.05376 23.4965 4.45001 23.4962ZM29.5379 23.4962C29.9344 23.4962 30.2488 23.797 30.2488 24.1935C30.2487 24.5899 29.9343 24.8907 29.5379 24.8907C29.1554 24.8905 28.8408 24.5897 28.8406 24.1935C28.8406 23.7971 29.1553 23.4965 29.5379 23.4962ZM17.0008 5.9552C23.0711 5.9552 28.034 10.9317 28.034 17.0021C28.034 19.089 27.4585 21.0369 26.4471 22.6906L25.4764 21.7208C26.2543 20.327 26.6951 18.7173 26.6951 17.0021C26.6951 11.6427 22.3465 7.29504 17.0008 7.29504C15.2783 7.29513 13.6647 7.73807 12.2693 8.52063L11.2928 7.54504C12.949 6.53174 14.9032 5.95529 17.0008 5.9552ZM14.0545 17.8029C14.3268 18.8583 15.1539 19.6853 16.2147 19.9601L18.657 22.3995C18.1343 22.5615 17.5775 22.6486 17.0008 22.6486C13.8702 22.6483 11.3818 20.1463 11.3817 17.0294C11.3817 16.4539 11.4679 15.8992 11.6277 15.3781L14.0545 17.8029ZM3.38361 21.213C3.7801 21.213 4.08087 21.5275 4.08087 21.9103C4.08076 22.3067 3.78002 22.6212 3.38361 22.6212C2.98744 22.621 2.68645 22.3065 2.68634 21.9103C2.68634 21.5276 2.98737 21.2133 3.38361 21.213ZM30.6043 21.213C31.0008 21.213 31.3026 21.5275 31.3026 21.9103C31.3024 22.3067 31.0007 22.6212 30.6043 22.6212C30.2081 22.621 29.9081 22.3065 29.908 21.9103C29.908 21.5276 30.208 21.2133 30.6043 21.213ZM2.742 18.7931C3.13824 18.7933 3.43829 19.0941 3.43829 19.4904C3.43815 19.8866 3.13815 20.1874 2.742 20.1876C2.34561 20.1876 2.04391 19.8867 2.04376 19.4904C2.04376 19.094 2.34552 18.7931 2.742 18.7931ZM31.2479 18.7931C31.6441 18.7933 31.9451 19.0941 31.9451 19.4904C31.945 19.8866 31.644 20.1874 31.2479 20.1876C30.8652 20.1876 30.5498 19.8867 30.5496 19.4904C30.5496 19.094 30.8651 18.7931 31.2479 18.7931ZM17.0008 11.4103C20.1043 11.4103 22.6072 13.9259 22.6072 17.0294C22.6072 17.5828 22.5273 18.1175 22.3758 18.6212L19.9031 16.1505C19.6075 15.1864 18.839 14.4217 17.8787 14.1271L15.3943 11.6437C15.902 11.4906 16.4415 11.4103 17.0008 11.4103ZM2.52325 16.3048C2.9195 16.3051 3.21954 16.6057 3.21954 17.0021C3.21944 17.3983 2.91943 17.6991 2.52325 17.6993C2.12684 17.6993 1.82512 17.3985 1.82501 17.0021C1.82501 16.6056 2.12677 16.3048 2.52325 16.3048ZM31.4656 16.3048C31.8621 16.3048 32.1776 16.6056 32.1776 17.0021C32.1774 17.3985 31.8621 17.6993 31.4656 17.6993C31.0831 17.6991 30.7695 17.3983 30.7693 17.0021C30.7693 16.6057 31.083 16.305 31.4656 16.3048ZM2.742 13.8165C3.13824 13.8168 3.43829 14.1175 3.43829 14.5138C3.43818 14.91 3.13817 15.2108 2.742 15.2111C2.34559 15.2111 2.04388 14.9102 2.04376 14.5138C2.04376 14.1173 2.34552 13.8165 2.742 13.8165ZM31.2479 13.8165C31.6441 13.8168 31.9451 14.1175 31.9451 14.5138C31.945 14.91 31.644 15.2108 31.2479 15.2111C30.8651 15.2111 30.5497 14.9102 30.5496 14.5138C30.5496 14.1173 30.8651 13.8165 31.2479 13.8165ZM3.38361 11.3829C3.7801 11.3829 4.08087 11.6974 4.08087 12.0802C4.08075 12.4766 3.78002 12.7911 3.38361 12.7911C2.98744 12.7909 2.68646 12.4764 2.68634 12.0802C2.68634 11.6975 2.98737 11.3832 3.38361 11.3829ZM30.6043 11.3829C31.0008 11.3829 31.3026 11.6974 31.3026 12.0802C31.3024 12.4766 31.0007 12.7911 30.6043 12.7911C30.2081 12.7909 29.9081 12.4764 29.908 12.0802C29.908 11.6975 30.208 11.3832 30.6043 11.3829ZM4.45001 9.09973C4.83282 9.09973 5.14825 9.41419 5.14825 9.81067C5.14812 10.1934 4.83274 10.5079 4.45001 10.5079C4.05385 10.5077 3.73921 10.1932 3.73907 9.81067C3.73907 9.41435 4.05376 9.09999 4.45001 9.09973ZM29.5379 9.09973C29.9344 9.09973 30.2488 9.41419 30.2488 9.81067C30.2487 10.1934 29.9343 10.5079 29.5379 10.5079C29.1554 10.5077 28.8408 10.1932 28.8406 9.81067C28.8406 9.41435 29.1553 9.09999 29.5379 9.09973ZM28.0897 7.02161C28.4859 7.02186 28.7996 7.33622 28.7996 7.73254C28.7995 8.1151 28.4858 8.42956 28.0897 8.42981C27.7069 8.42981 27.3916 8.11525 27.3914 7.73254C27.3914 7.33606 27.7069 7.02161 28.0897 7.02161ZM26.2986 5.24426C26.6949 5.2445 27.0086 5.54519 27.0086 5.94153C27.0085 6.33773 26.6948 6.63856 26.2986 6.63879C25.9159 6.63879 25.6005 6.33789 25.6004 5.94153C25.6004 5.54504 25.9158 5.24426 26.2986 5.24426ZM9.75568 3.79504C10.1383 3.79531 10.452 4.10967 10.452 4.50598C10.4518 4.88852 10.1382 5.20298 9.75568 5.20325C9.35927 5.20325 9.05756 4.88868 9.05743 4.50598C9.05743 4.1095 9.35919 3.79504 9.75568 3.79504ZM24.2332 3.79504C24.6297 3.79504 24.9451 4.1095 24.9451 4.50598C24.945 4.88868 24.6296 5.20325 24.2332 5.20325C23.8507 5.20299 23.5371 4.88853 23.5369 4.50598C23.5369 4.10966 23.8506 3.7953 24.2332 3.79504ZM12.0379 2.71497C12.4344 2.71497 12.7488 3.01575 12.7488 3.41223C12.7487 3.8086 12.4343 4.1095 12.0379 4.1095C11.6554 4.10925 11.3417 3.80843 11.3416 3.41223C11.3416 3.01592 11.6553 2.71522 12.0379 2.71497ZM21.95 2.71497C22.3328 2.71497 22.6483 3.01575 22.6483 3.41223C22.6481 3.8086 22.3327 4.1095 21.95 4.1095C21.5538 4.10926 21.2402 3.80844 21.2401 3.41223C21.2401 3.01591 21.5537 2.7152 21.95 2.71497ZM14.4715 2.05872C14.868 2.05872 15.1824 2.37317 15.1824 2.76965C15.1823 3.15236 14.8679 3.46692 14.4715 3.46692C14.089 3.46666 13.7744 3.1522 13.7742 2.76965C13.7742 2.37334 14.0889 2.05898 14.4715 2.05872ZM19.5164 2.05872C19.8992 2.05872 20.2147 2.37317 20.2147 2.76965C20.2145 3.15236 19.8991 3.46692 19.5164 3.46692C19.1202 3.46668 18.8203 3.15221 18.8201 2.76965C18.8201 2.37333 19.1201 2.05896 19.5164 2.05872ZM17.0008 1.83997C17.3836 1.83997 17.699 2.14075 17.699 2.53723C17.6989 2.9336 17.3835 3.2345 17.0008 3.2345C16.6046 3.23425 16.291 2.93344 16.2908 2.53723C16.2908 2.14091 16.6045 1.84021 17.0008 1.83997Z" fill="currentColor"/>
</svg>
