<svg width="34" height="34" viewBox="0 0 34 34" fill="none" xmlns="http://www.w3.org/2000/svg">
<path d="M24.5585 2.495C26.2812 2.495 27.4159 3.61609 27.4159 5.28406V30.413C27.4159 31.0145 26.9237 31.5067 26.3221 31.5067C25.7069 31.5067 25.2147 31.0145 25.2147 30.413V5.42078C25.2147 4.98328 24.9277 4.69617 24.5175 4.69617H9.47839C9.06823 4.69617 8.78113 4.98328 8.78113 5.42078V30.413C8.78113 31.0145 8.28894 31.5067 7.67371 31.5067C7.07214 31.5067 6.57996 31.0145 6.57996 30.413V5.28406C6.57996 3.61609 7.7284 2.495 9.43738 2.495H24.5585ZM23.1366 6.2821C23.3964 6.17278 23.6151 6.30949 23.6151 6.58289V30.7274C23.6151 30.9872 23.3964 31.1239 23.1366 31.0145L18.8436 29.1141C18.5018 28.9638 18.3651 28.8544 18.3651 28.4989V8.79773C18.3651 8.49866 18.4697 8.36677 18.7157 8.24695L23.1366 6.2821Z" fill="currentColor"/>
</svg>
