<svg width="34" height="34" viewBox="0 0 34 34" fill="none" xmlns="http://www.w3.org/2000/svg">
<path d="M27.3616 18.3042C27.3616 18.6323 27.2522 18.9195 26.9924 19.1929L17.9143 28.2847C17.6545 28.5581 17.3401 28.6948 16.9983 28.6948C16.6565 28.6948 16.342 28.5581 16.0823 28.2847L7.01782 19.1929C6.75806 18.9195 6.63501 18.6323 6.63501 18.3042C6.63501 17.6343 7.1272 17.1148 7.81079 17.1148C8.13892 17.1148 8.46704 17.2241 8.67212 17.4429L11.7893 20.5054L16.6975 25.8784L15.9182 26.1519L15.7815 22.0776V4.05808C15.7815 3.34718 16.2873 2.85498 16.9983 2.85498C17.7092 2.85498 18.2151 3.34718 18.2151 4.05808V22.0776L18.0784 26.1519L17.3127 25.8784L22.2073 20.5054L25.3245 17.4429C25.5432 17.2241 25.8577 17.1148 26.1858 17.1148C26.8694 17.1148 27.3616 17.6343 27.3616 18.3042ZM27.3616 29.9116C27.3616 30.6226 26.883 31.1421 26.1858 31.1421H7.83813C7.1272 31.1421 6.63501 30.6226 6.63501 29.9116C6.63501 29.2007 7.1272 28.6948 7.83813 28.6948H26.1858C26.883 28.6948 27.3616 29.2007 27.3616 29.9116Z" fill="currentColor"/>
</svg>
