<svg width="34" height="34" viewBox="0 0 34 34" fill="none" xmlns="http://www.w3.org/2000/svg">
<path d="M7.32797 14.6705C7.32797 14.0679 7.69883 13.697 8.32466 13.697H10.4687V11.6109C10.4687 10.9967 10.8164 10.6258 11.419 10.6258C12.0101 10.6258 12.3693 10.9967 12.3693 11.6109V13.697H14.3744C15.0465 13.697 15.4522 14.0679 15.4522 14.6705C15.4522 15.2963 15.0465 15.6788 14.3744 15.6788H12.3693V17.7649C12.3693 18.3791 12.0101 18.7616 11.419 18.7616C10.8164 18.7616 10.4687 18.3791 10.4687 17.7649V15.6788H8.32466C7.69883 15.6788 7.32797 15.2963 7.32797 14.6705ZM24.434 14.5546C23.4836 14.5546 22.6839 13.7781 22.6839 12.8162C22.6839 11.8427 23.4836 11.0662 24.434 11.0662C25.4074 11.0662 26.1839 11.8427 26.1839 12.8162C26.1839 13.7781 25.4074 14.5546 24.434 14.5546ZM20.9224 18.0894C19.972 18.0894 19.1723 17.3129 19.1723 16.351C19.1723 15.3891 19.972 14.601 20.9224 14.601C21.8842 14.601 22.6723 15.3891 22.6723 16.351C22.6723 17.3129 21.8842 18.0894 20.9224 18.0894ZM4.68558 27.5C6.27333 27.5 7.36274 26.9205 8.33624 25.7152L10.4339 23.1772C10.7353 22.8179 11.083 22.6441 11.4306 22.6441H22.5681C22.9157 22.6441 23.2634 22.8179 23.5648 23.1772L25.6624 25.7152C26.6359 26.9205 27.7254 27.5 29.3131 27.5C31.9671 27.5 33.7286 25.7384 33.7286 23.0265C33.7286 21.8676 33.462 20.5348 33.0101 19.0397C32.3032 16.6639 31.0631 13.4305 29.8809 10.9272C28.8843 8.84106 28.3743 7.89073 25.9174 7.33444C23.7385 6.83609 20.7137 6.5 17.0051 6.5C13.2965 6.5 10.2601 6.83609 8.08128 7.33444C5.62433 7.89073 5.11439 8.84106 4.1177 10.9272C2.93558 13.4305 1.69552 16.6639 0.988563 19.0397C0.536576 20.5348 0.27002 21.8676 0.27002 23.0265C0.27002 25.7384 2.03161 27.5 4.68558 27.5Z" fill="currentColor"/>
</svg>
