<svg width="34" height="34" viewBox="0 0 34 34" fill="none" xmlns="http://www.w3.org/2000/svg">
<path d="M26.9631 3.81753C28.5622 4.351 29.3674 5.69583 29.3674 7.84585V28.1759C29.3674 31.0334 27.9455 32.4552 25.1292 32.4552H15.5745C17.9024 32.1294 20.3214 31.6462 23.0237 30.8966C25.799 30.1037 27.0706 28.3262 27.0706 25.1408V5.12515C27.0705 4.66145 27.0354 4.22394 26.9631 3.81753ZM21.1233 1.69351C23.7482 1.07829 25.2111 2.40457 25.2112 5.12515V25.1408C25.2112 27.5334 24.4592 28.5588 22.5178 29.1056C17.2951 30.5412 13.2346 30.965 8.64087 31.2111C6.11158 31.3615 4.63501 30.131 4.63501 27.7521V7.39468C4.63509 4.9202 6.09796 3.66224 8.31274 3.52554C13.2346 3.23843 17.2951 2.55484 21.1233 1.69351ZM15.7776 22.5568C15.7775 22.1331 15.4357 21.7228 14.8069 21.8322C13.4534 22.0509 11.9631 22.256 9.6936 22.3791C9.11947 22.4337 8.87337 22.762 8.87329 23.1994C8.87329 23.6506 9.20141 24.006 9.6936 23.9787C12.0041 23.842 13.5355 23.6232 15.0667 23.3771C15.5315 23.2951 15.7776 22.9259 15.7776 22.5568ZM20.9729 17.047C20.9728 16.6096 20.6446 16.2267 20.0159 16.3498C16.8851 17.047 13.6858 17.6075 9.6936 17.8673C9.11947 17.9083 8.87337 18.2503 8.87329 18.674C8.87329 19.1252 9.20141 19.4806 9.6936 19.4533C13.6858 19.1935 16.8851 18.6329 20.1663 17.9083C20.8225 17.7715 20.9729 17.4435 20.9729 17.047ZM20.9729 12.508C20.9728 12.0706 20.6446 11.6878 20.0159 11.8107C16.8851 12.508 13.6858 13.0685 9.6936 13.3283C9.11946 13.3693 8.87335 13.7112 8.87329 14.1349C8.87329 14.5861 9.20141 14.9416 9.6936 14.9142C13.6858 14.6545 16.8851 14.0939 20.1663 13.3693C20.8225 13.2326 20.9729 12.9044 20.9729 12.508ZM20.9729 7.9689C20.9728 7.5315 20.6446 7.14865 20.0159 7.2853C16.8851 7.9689 13.6858 8.52944 9.6936 8.78921C9.11947 8.83021 8.87336 9.17211 8.87329 9.60952C8.87329 10.0607 9.20141 10.4024 9.6936 10.3751C13.6858 10.1153 16.8851 9.5685 20.1663 8.83022C20.8225 8.6935 20.9729 8.36536 20.9729 7.9689Z" fill="currentColor"/>
</svg>
