<svg width="34" height="34" viewBox="0 0 34 34" fill="none" xmlns="http://www.w3.org/2000/svg">
<path d="M17.4101 32.9829C18.2101 32.9829 18.8376 32.3555 18.8376 31.5712V19.9327L23.5274 15.6035C25.3155 15.8388 27.1978 15.1016 28.8447 13.4546L20.2179 4.81203C18.5552 6.45899 17.865 8.30986 18.1159 10.1137L3.52863 25.8146C2.93259 26.4578 2.83848 27.3519 3.57569 28.0891L1.56797 30.6771C1.37974 30.9281 1.36406 31.2888 1.64639 31.5712L2.10127 32.0418C2.36792 32.3084 2.72869 32.3241 3.01102 32.1046L5.5991 30.0811C6.30493 30.8184 7.21468 30.7242 7.8421 30.1282L15.9828 22.5992V31.5712C15.9828 32.3555 16.6101 32.9829 17.4101 32.9829ZM5.14422 27.1009L18.9787 12.4194C19.2453 12.8742 19.5591 13.2978 19.9512 13.7213C20.3276 14.1134 20.7668 14.4742 21.1747 14.7251L6.58728 28.5439L5.14422 27.1009ZM21.7864 3.22782L30.429 11.8704C33.1896 9.14118 33.2994 5.64335 30.6486 3.00822C28.0134 0.404455 24.547 0.467195 21.7864 3.22782Z" fill="currentColor"/>
</svg>
