<svg width="34" height="34" viewBox="0 0 34 34" fill="none" xmlns="http://www.w3.org/2000/svg">
<path d="M17.0051 27.6915C17.7844 27.6915 18.427 28.3205 18.427 29.1134C18.427 29.9064 17.7844 30.5353 17.0051 30.5353C16.2122 30.5353 15.5833 29.9064 15.5833 29.1134C15.5833 28.3205 16.2121 27.6916 17.0051 27.6915ZM8.43286 24.1505C9.22583 24.1505 9.85474 24.7795 9.85474 25.5724C9.85473 26.3654 9.22582 26.9943 8.43286 26.9943C7.6399 26.9943 7.011 26.3654 7.01099 25.5724C7.01099 24.7795 7.63989 24.1505 8.43286 24.1505ZM25.5774 24.1505C26.3567 24.1505 26.9856 24.7795 26.9856 25.5724C26.9856 26.3654 26.3567 26.9943 25.5774 26.9943C24.7845 26.9943 24.1555 26.3654 24.1555 25.5724C24.1555 24.7795 24.7845 24.1505 25.5774 24.1505ZM17.0051 10.0275C20.8469 10.0275 23.9641 13.1583 23.9641 17.0001C23.9641 20.8419 20.8469 23.9591 17.0051 23.9591C13.1633 23.9591 10.0325 20.8419 10.0325 17.0001C10.0325 13.1583 13.1633 10.0275 17.0051 10.0275ZM4.89185 15.5782C5.68479 15.5782 6.3137 16.2071 6.31372 17.0001C6.31372 17.793 5.68481 18.422 4.89185 18.422C4.09887 18.422 3.46997 17.793 3.46997 17.0001C3.46999 16.2071 4.09889 15.5782 4.89185 15.5782ZM29.1184 15.5782C29.8977 15.5783 30.5266 16.2072 30.5266 17.0001C30.5266 17.793 29.8977 18.422 29.1184 18.422C28.3255 18.422 27.6965 17.793 27.6965 17.0001C27.6966 16.2071 28.3255 15.5782 29.1184 15.5782ZM8.43286 7.00598C9.22583 7.00598 9.85474 7.63489 9.85474 8.42786C9.85474 9.22083 9.22583 9.84973 8.43286 9.84973C7.63989 9.84973 7.01099 9.22083 7.01099 8.42786C7.01099 7.63489 7.63989 7.00598 8.43286 7.00598ZM25.5774 7.00598C26.3567 7.00599 26.9856 7.63489 26.9856 8.42786C26.9856 9.22082 26.3567 9.84972 25.5774 9.84973C24.7845 9.84973 24.1555 9.22083 24.1555 8.42786C24.1555 7.63489 24.7845 7.00598 25.5774 7.00598ZM17.0051 3.46497C17.7844 3.46497 18.427 4.09387 18.427 4.88684C18.427 5.6798 17.7844 6.30872 17.0051 6.30872C16.2121 6.30869 15.5833 5.67979 15.5833 4.88684C15.5833 4.09388 16.2121 3.46499 17.0051 3.46497Z" fill="currentColor"/>
</svg>
