<svg width="34" height="34" viewBox="0 0 34 34" fill="none" xmlns="http://www.w3.org/2000/svg">
<path d="M17.0079 26.5247C17.6504 26.5247 18.1837 27.0578 18.1837 27.7004V30.6536C18.1837 31.2962 17.6504 31.8293 17.0079 31.8293C16.3517 31.8293 15.8185 31.2961 15.8185 30.6536V27.7004C15.8185 27.0579 16.3517 26.5247 17.0079 26.5247ZM23.7072 23.7219C24.1719 23.2844 24.9239 23.2708 25.3751 23.7219L27.4806 25.8274C27.9318 26.2786 27.9318 27.0306 27.4806 27.4954C27.0295 27.9329 26.2637 27.9602 25.8126 27.509L23.7072 25.3899C23.256 24.9388 23.256 24.1867 23.7072 23.7219ZM8.6134 23.7219C9.06457 23.2707 9.8302 23.2844 10.295 23.7219C10.7325 24.1867 10.7325 24.9388 10.2814 25.3899L8.18958 27.4954C7.73841 27.9465 6.95911 27.9192 6.50793 27.4817C6.07043 27.0169 6.07044 26.2648 6.52161 25.8137L8.6134 23.7219ZM16.9943 10.0364C20.8361 10.0364 23.9532 13.1672 23.9532 17.009C23.9532 20.8508 20.8361 23.968 16.9943 23.968C13.1525 23.968 10.0353 20.8508 10.0353 17.009C10.0353 13.1672 13.1525 10.0364 16.9943 10.0364ZM6.3302 15.8196C6.97277 15.8196 7.51964 16.3664 7.51965 17.009C7.51965 17.6516 6.97278 18.1848 6.3302 18.1848H3.39075C2.74817 18.1848 2.21497 17.6516 2.21497 17.009C2.21497 16.3664 2.74818 15.8196 3.39075 15.8196H6.3302ZM30.6115 15.8196C31.254 15.8196 31.7872 16.3664 31.7872 17.009C31.7872 17.6516 31.254 18.1848 30.6115 18.1848H27.672C27.0295 18.1848 26.4825 17.6516 26.4825 17.009C26.4826 16.3664 27.0295 15.8196 27.672 15.8196H30.6115ZM25.8126 6.52271C26.2637 6.07153 27.0295 6.07153 27.4806 6.52271C27.9318 6.98754 27.9318 7.75317 27.4806 8.20435L25.3888 10.2961C24.924 10.761 24.172 10.7473 23.7072 10.2961C23.256 9.84497 23.256 9.07935 23.7072 8.62817L25.8126 6.52271ZM6.53528 6.52271C6.98645 6.07153 7.76575 6.08521 8.20325 6.52271L10.295 8.62817C10.7325 9.06567 10.7325 9.85864 10.2814 10.2961C9.81652 10.7473 9.06457 10.7473 8.6134 10.2961L6.52161 8.19067C6.08411 7.75317 6.08411 6.98755 6.53528 6.52271ZM17.0079 2.17505C17.6504 2.17505 18.1837 2.70825 18.1837 3.3645V6.30396C18.1837 6.96021 17.6504 7.49341 17.0079 7.49341C16.3516 7.49339 15.8185 6.96019 15.8185 6.30396V3.3645C15.8185 2.70827 16.3516 2.17507 17.0079 2.17505Z" fill="currentColor"/>
</svg>
