<svg width="36" height="34" viewBox="0 0 36 34" fill="none" xmlns="http://www.w3.org/2000/svg">
<path d="M0.849976 26.9574C0.849976 28.434 1.8617 29.7738 3.69373 29.7738H32.3227C34.1547 29.7738 35.1527 28.434 35.1527 26.9574C35.1527 25.8637 34.5785 24.7016 33.4027 24.0453L18.0082 15.4047L2.59998 24.0453C1.42419 24.7016 0.849976 25.8637 0.849976 26.9574ZM3.06482 26.8344C3.06482 26.4789 3.24256 26.1645 3.7074 25.9047L18.0082 17.9066L32.309 25.9047C32.7738 26.1645 32.9516 26.4789 32.9516 26.8344C32.9516 27.2582 32.6781 27.6 32.0902 27.6H3.91248C3.33826 27.6 3.06482 27.2582 3.06482 26.8344ZM16.9418 16.4301H19.0609V14.9809C19.0609 13.7504 19.6625 13.2719 20.7289 12.4105C21.8363 11.5082 23.6 10.2504 23.6 7.48865C23.6 4.33045 21.3852 2.22498 18.0766 2.22498C14.7953 2.22498 12.6078 4.53553 12.6078 7.99451C12.6078 8.65076 13.059 9.10193 13.6469 9.10193C14.2211 9.10193 14.6723 8.65076 14.6723 8.13123C14.6723 5.83436 16.0395 4.3031 18.0766 4.3031C20.1547 4.3031 21.5492 5.57459 21.5492 7.48865C21.5492 9.19764 20.6332 9.96325 19.7035 10.7152C18.4867 11.6996 16.9418 12.5609 16.9418 14.9809V16.4301Z" fill="currentColor"/>
</svg>
