<svg width="34" height="34" viewBox="0 0 34 34" fill="none" xmlns="http://www.w3.org/2000/svg">
<path d="M10.5915 18.177H23.407V14.6539C23.407 11.9462 25.2224 9.94617 27.7916 9.94617H27.9607V6.83847C27.9607 4.82308 26.6531 3.5 24.7301 3.5H9.26846C7.32999 3.5 6.02229 4.82308 6.02229 6.83847V9.94617H6.19152C8.77615 9.94617 10.5915 11.9462 10.5915 14.6539V18.177ZM1.72998 24.0077C1.72998 25.9308 3.00691 27.2078 4.88383 27.2078H29.1146C30.9761 27.2078 32.2685 25.9308 32.2685 24.0077V14.6539C32.2685 12.7462 30.9761 11.4539 29.1146 11.4539H28.3454C26.4838 11.4539 25.1915 12.7462 25.1915 14.6539V19.9616H8.79153V14.6539C8.79153 12.7462 7.5146 11.4539 5.63768 11.4539H4.88383C3.00691 11.4539 1.72998 12.7462 1.72998 14.6539V24.0077ZM7.16076 30.5H8.12999C8.96076 30.5 9.49923 29.977 9.49923 29.1462V25.8847H5.80691V29.1462C5.80691 29.977 6.32999 30.5 7.16076 30.5ZM25.8685 30.5H26.8223C27.6531 30.5 28.1762 29.977 28.1762 29.1462V25.8847H24.4993V29.1462C24.4993 29.977 25.0377 30.5 25.8685 30.5Z" fill="currentColor"/>
</svg>
