<svg width="34" height="34" viewBox="0 0 34 34" fill="none" xmlns="http://www.w3.org/2000/svg">
<path d="M9.27673 10.3463C9.78259 10.3463 10.1927 10.7565 10.1927 11.2623V25.153C10.1927 29.1452 7.18494 30.6354 5.1615 30.6354C2.89198 30.6354 1.26503 29.1725 1.26501 27.067C1.26501 24.9752 2.55017 23.5944 5.31189 23.0065L7.48572 22.5553C8.08727 22.4459 8.34703 21.9948 8.34705 21.3248V11.2623C8.34705 10.7565 8.77087 10.3463 9.27673 10.3463ZM31.8217 10.3463C32.3138 10.3463 32.7377 10.7702 32.7377 11.2623V25.153C32.7377 29.1451 29.7162 30.6354 27.7064 30.6354C25.4232 30.6354 23.81 29.1725 23.8099 27.067C23.8099 24.9889 25.0951 23.5943 27.8431 23.0201L30.0306 22.5553C30.6185 22.4459 30.892 22.0084 30.892 21.3248V11.2623C30.892 10.7701 31.3159 10.3463 31.8217 10.3463ZM21.6908 3.35999C22.1966 3.35999 22.6068 3.78381 22.6068 4.276V18.1666C22.6068 22.1725 19.5991 23.6627 17.5756 23.6627C15.3061 23.6627 13.6791 22.1862 13.6791 20.0944C13.6791 18.0026 14.9643 16.608 17.726 16.0338L19.8998 15.5826C20.5013 15.4595 20.7611 15.0221 20.7611 14.3522V4.276C20.7611 3.78382 21.1849 3.36 21.6908 3.35999Z" fill="currentColor"/>
</svg>
