<svg width="34" height="34" viewBox="0 0 34 34" fill="none" xmlns="http://www.w3.org/2000/svg">
<path d="M10.3336 8.76099C10.8531 8.54224 11.2769 8.59693 11.4957 8.87036C11.7144 9.11646 11.7144 9.52662 11.4821 10.0051C11.031 10.9348 10.6344 12.7122 10.6344 14.2297C10.6344 20.2043 14.572 24.0325 20.6696 24.0325C22.1324 24.0325 23.3903 23.8137 24.5114 23.3625C24.9215 23.2259 25.2907 23.2532 25.4821 23.4446C25.7281 23.6907 25.7828 24.1009 25.5641 24.5793C23.773 28.4621 19.7945 31.1965 14.941 31.1965C8.36491 31.1965 3.31999 25.9876 3.31995 19.5481C3.31995 14.804 6.13635 10.5794 10.3336 8.76099ZM25.4137 8.18677C25.6734 8.18677 25.8512 8.3645 25.8785 8.63794C26.3297 12.2883 26.5349 12.2747 30.2672 12.9856C30.4996 13.0267 30.6774 13.1906 30.6774 13.4504C30.6774 13.7102 30.4996 13.8605 30.2125 13.9016C26.5075 14.5031 26.3297 14.5989 25.8785 18.2493C25.8512 18.5228 25.6734 18.7004 25.4137 18.7004C25.1676 18.7004 24.9898 18.5227 24.9489 18.2766C24.4704 14.6263 24.3474 14.6262 20.5602 13.9016C20.3278 13.8605 20.15 13.6965 20.15 13.4504C20.15 13.1906 20.3278 13.013 20.5602 12.9856C24.3474 12.4524 24.4841 12.3293 24.9489 8.62427C24.9898 8.36453 25.1676 8.18681 25.4137 8.18677ZM18.8785 2.80005C19.0426 2.80005 19.1247 2.89575 19.152 3.04614C19.6442 5.30199 19.5622 5.35669 21.941 5.83521C22.0914 5.86254 22.2008 5.95825 22.2008 6.12231C22.2008 6.28637 22.0914 6.38207 21.941 6.40942C19.5622 6.86059 19.5759 6.91529 19.152 9.19849C19.1247 9.34888 19.0426 9.44458 18.8785 9.44458C18.7145 9.44457 18.6187 9.34887 18.5914 9.19849C18.1676 6.91529 18.1949 6.88793 15.816 6.40942C15.652 6.38207 15.5563 6.28636 15.5563 6.12231C15.5563 5.95826 15.652 5.86255 15.816 5.83521C18.1949 5.35669 18.1129 5.30199 18.5914 3.04614C18.6187 2.89576 18.7145 2.80006 18.8785 2.80005Z" fill="currentColor"/>
</svg>
