<svg width="34" height="34" viewBox="0 0 34 34" fill="none" xmlns="http://www.w3.org/2000/svg">
<path d="M17.8438 17.3125L16.9268 18.2314C16.5778 18.5939 15.9602 18.5805 15.5977 18.2314C15.2488 17.8691 15.2354 17.2514 15.5977 16.9023L16.5108 15.9902C15.6612 15.1993 14.8342 14.5505 14.0694 14.0527C13.9999 14.5847 13.9158 15.1186 13.8126 15.6543C13.7186 16.1509 13.3831 16.5536 12.8731 16.5537C12.3899 16.5403 11.8668 16.1377 11.9874 15.6143C12.5914 12.4063 12.5914 9.15728 11.9874 6.00293C11.8802 5.46617 12.3903 5.05054 12.8868 5.03711C13.4099 5.03735 13.7322 5.45288 13.8263 5.94922C14.2197 8.01038 14.3605 10.0555 14.2491 12.1152C15.5102 12.8006 16.7698 13.7238 17.8311 14.6719L22.4434 10.0703C22.7925 9.73483 23.41 9.70794 23.7589 10.0703C24.1078 10.4327 24.0943 11.0367 23.7589 11.3857L19.1612 15.9922L19.5147 16.3965C20.3354 17.3597 21.1203 18.4659 21.7305 19.5771C23.7966 19.4676 25.8447 19.6084 27.92 20.0029C28.4032 20.0969 28.8329 20.4199 28.8194 20.9434C28.8058 21.4532 28.3762 21.9491 27.8663 21.8418C25.8295 21.4534 23.7647 21.3215 21.6973 21.4365C21.9852 21.4211 22.273 21.4122 22.5606 21.4092C23.2193 23.3037 23.0908 24.9775 21.4102 25.6807L3.16805 33.3057C1.18159 34.1375 -0.657262 32.2446 0.228594 30.2715L8.25594 12.4736C8.99203 10.8455 10.6033 10.6922 12.4278 11.3037C12.4227 11.9045 12.3893 12.5068 12.3331 13.1084C11.2775 12.6742 10.47 12.6424 10.0811 13.0371C9.18188 13.9231 10.4838 16.9971 13.7052 20.2051C16.9266 23.4398 19.9875 24.7545 20.8868 23.8418C21.2858 23.4481 21.2427 22.6072 20.7735 21.5059C21.0424 21.4803 21.3114 21.4592 21.5802 21.4434C20.4715 21.5101 19.3621 21.6472 18.2559 21.8555C17.7192 21.9627 17.3158 21.4398 17.3155 20.9434C17.3022 20.4467 17.719 20.1103 18.2022 20.0029C18.7386 19.9022 19.2723 19.8188 19.8038 19.751C19.2965 18.9843 18.6399 18.1582 17.8438 17.3125ZM32.0138 20.1641C32.8324 20.1641 33.4902 20.8219 33.4903 21.6406C33.4903 22.4729 32.8325 23.1172 32.0138 23.1172C31.195 23.1171 30.5372 22.4729 30.5372 21.6406C30.5373 20.822 31.1951 20.1641 32.0138 20.1641ZM26.752 12.54C27.9467 12.54 28.8995 13.4936 28.8995 14.6748C28.8993 15.8693 27.9465 16.7949 26.752 16.7949C25.571 16.7949 24.6448 15.8692 24.6446 14.6748C24.6446 13.4936 25.5709 12.5401 26.752 12.54ZM32.5235 13.292C33.3423 13.292 34 13.9496 34.0001 14.7549C34.0001 15.5871 33.3423 16.2451 32.5235 16.2451C31.6914 16.2449 31.047 15.587 31.047 14.7549C31.047 13.9497 31.6915 13.2922 32.5235 13.292ZM17.7989 7.61426C18.4566 7.61426 18.9804 8.15078 18.9805 8.79492C18.9805 9.45264 18.4567 9.99023 17.7989 9.99023C17.1547 9.99015 16.6046 9.45258 16.6046 8.79492C16.6048 8.15084 17.1548 7.61434 17.7989 7.61426ZM27.4229 5.07715C27.7853 4.71474 28.3896 4.72818 28.752 5.07715C29.1011 5.43956 29.1144 6.04383 28.752 6.40625L26.2423 8.90234C25.8799 9.27819 25.289 9.26476 24.9132 8.90234C24.5644 8.53992 24.5508 7.94928 24.9132 7.58691L27.4229 5.07715ZM20.3497 0.714844C21.7589 0.714979 22.8731 1.81555 22.8731 3.23828C22.8731 4.63415 21.7589 5.76158 20.3497 5.76172C18.9403 5.76172 17.8263 4.63424 17.8263 3.23828C17.8263 1.81547 18.9402 0.714844 20.3497 0.714844ZM31.3028 1.8291C31.9469 1.82936 32.4698 2.3659 32.4698 3.02344C32.4698 3.68099 31.9469 4.20482 31.3028 4.20508C30.6451 4.20508 30.1212 3.68115 30.1212 3.02344C30.1212 2.36574 30.6451 1.8291 31.3028 1.8291ZM12.0538 0.5C12.8591 0.5 13.5302 1.15761 13.5304 1.96289C13.5304 2.78169 12.8591 3.43945 12.0538 3.43945C11.2217 3.43924 10.5772 2.78155 10.5772 1.96289C10.5773 1.15774 11.2218 0.50021 12.0538 0.5Z" fill="currentColor"/>
</svg>
