<svg width="34" height="34" viewBox="0 0 34 34" fill="none" xmlns="http://www.w3.org/2000/svg">
<path d="M2.43798 19.26H9.37824C10.0832 19.26 10.5062 18.9468 10.6629 18.3201L13.6865 4.40827H12.4959L17.1331 32.2633C17.3212 33.3913 19.0601 33.3756 19.2794 32.2633L23.7758 11.1605L22.7887 11.1448L24.1987 18.1947C24.3398 18.9155 24.747 19.26 25.4834 19.26H31.562C32.1887 19.26 32.69 18.7744 32.69 18.1634C32.69 17.5367 32.2043 17.0511 31.562 17.0511H24.1674L26.4233 18.8841L24.2144 9.07688C23.9794 7.99589 22.3657 7.99589 22.0994 9.12388L17.5248 29.5686H18.6371L14.0468 1.7293C13.8745 0.63265 12.2765 0.60131 12.0259 1.7293L8.31292 18.8841L10.5689 17.0511H2.43798C1.79566 17.0511 1.31 17.5524 1.31 18.1634C1.31 18.7744 1.79566 19.26 2.43798 19.26Z" fill="currentColor"/>
</svg>
