<svg width="34" height="34" viewBox="0 0 34 34" fill="none" xmlns="http://www.w3.org/2000/svg">
<path d="M16.9951 8.11499C26.405 8.11524 33.9998 15.7109 34 25.1208C34 25.5512 33.6629 25.8884 33.2441 25.8884C32.8139 25.8883 32.4766 25.5511 32.4766 25.1208C32.4764 16.5833 25.5442 9.63966 16.9951 9.6394C8.4458 9.6394 1.5246 16.5832 1.52441 25.1208C1.52441 25.5511 1.18708 25.8883 0.756836 25.8884C0.338088 25.8884 0 25.5512 0 25.1208C0.00018153 15.7108 7.58504 8.11499 16.9951 8.11499ZM16.9951 10.6628C25.0091 10.6631 31.4647 17.1184 31.4648 25.1208C31.4648 25.5511 31.1159 25.8883 30.6973 25.8884C30.2669 25.8884 29.9414 25.5512 29.9414 25.1208C29.9412 17.9908 24.1367 12.1865 16.9951 12.1863C9.85328 12.1863 4.07147 17.9906 4.07129 25.1208C4.07129 25.5512 3.72237 25.8884 3.29199 25.8884C2.87339 25.8883 2.54785 25.5511 2.54785 25.1208C2.54803 17.1182 8.99254 10.6628 16.9951 10.6628ZM16.9951 13.199C23.5901 13.1992 28.9168 18.5258 28.917 25.1208C28.917 25.5512 28.5682 25.8884 28.1494 25.8884C27.7192 25.8883 27.3936 25.5511 27.3936 25.1208C27.3934 19.3982 22.7409 14.7227 16.9951 14.7224C11.2607 14.7224 6.61932 19.3981 6.61914 25.1208C6.61914 25.5511 6.27015 25.8883 5.83984 25.8884C5.42109 25.8884 5.0957 25.5512 5.0957 25.1208C5.09588 18.5257 10.4 13.199 16.9951 13.199ZM16.9951 15.7458C22.1942 15.7461 26.3699 19.9217 26.3701 25.1208C26.3701 25.5511 26.0329 25.8882 25.6143 25.8884C25.1722 25.8884 24.8457 25.5512 24.8457 25.1208C24.8455 20.794 21.3218 17.2695 16.9951 17.2693C12.6682 17.2693 9.15546 20.7939 9.15527 25.1208C9.15527 25.5512 8.81712 25.8884 8.38672 25.8884C7.96813 25.8882 7.63086 25.5511 7.63086 25.1208C7.63104 19.9216 11.7958 15.7458 16.9951 15.7458ZM16.9951 18.2937C20.7868 18.2939 23.8221 21.3408 23.8223 25.1208C23.8223 25.5512 23.4852 25.8884 23.0664 25.8884C22.6361 25.8884 22.2988 25.5512 22.2988 25.1208C22.2986 22.2015 19.926 19.8174 16.9951 19.8171C14.064 19.8171 11.7023 22.2013 11.7021 25.1208C11.7021 25.5511 11.3649 25.8884 10.9346 25.8884C10.5042 25.8884 10.1787 25.5512 10.1787 25.1208C10.1789 21.3406 13.2148 18.2937 16.9951 18.2937Z" fill="currentColor"/>
</svg>
