<svg width="34" height="34" viewBox="0 0 34 34" fill="none" xmlns="http://www.w3.org/2000/svg">
<path d="M0.5 7.53174V12.0161C0.5 12.7681 0.978516 13.2329 1.7168 13.2329H32.2871C33.0254 13.2329 33.5039 12.7681 33.5039 12.0161V7.53174C33.5039 6.79346 33.0254 6.31494 32.2871 6.31494H1.7168C0.978516 6.31494 0.5 6.79346 0.5 7.53174ZM2.70117 8.88526C2.70117 8.68018 2.86523 8.51612 3.07031 8.51612H30.9336C31.1387 8.51612 31.3027 8.68018 31.3027 8.88526V10.6626C31.3027 10.8677 31.1387 11.0317 30.9336 11.0317H3.07031C2.86523 11.0317 2.70117 10.8677 2.70117 10.6626V8.88526ZM1.7168 27.6841H6.20117C6.95312 27.6841 7.41797 27.2192 7.41797 26.481V11.7563H5.23047V25.1685C5.23047 25.3599 5.05273 25.5239 4.84766 25.5239H3.07031C2.86523 25.5239 2.70117 25.3599 2.70117 25.1685V11.5786H0.5V26.481C0.5 27.2192 0.978516 27.6841 1.7168 27.6841ZM27.7891 27.6841H32.2871C33.0254 27.6841 33.5039 27.2192 33.5039 26.481V11.5786H31.3027V25.1685C31.3027 25.3599 31.1387 25.5239 30.9336 25.5239H29.1426C28.9375 25.5239 28.7734 25.3599 28.7734 25.1685V11.7563H26.5723V26.481C26.5723 27.2192 27.0508 27.6841 27.7891 27.6841Z" fill="currentColor"/>
</svg>
