<svg width="36" height="34" viewBox="0 0 36 34" fill="none" xmlns="http://www.w3.org/2000/svg">
<path d="M4.4237 26.039H31.576C33.7635 26.039 35.0897 24.6991 35.0897 22.5253V6.84363C35.0897 4.6698 33.7635 3.32996 31.576 3.32996H4.4237C2.24987 3.32996 0.910034 4.6698 0.910034 6.84363V22.5253C0.910034 24.6991 2.24987 26.039 4.4237 26.039ZM4.46472 23.8378C3.61706 23.8378 3.1112 23.332 3.1112 22.498V6.87098C3.1112 6.03699 3.61706 5.53113 4.46472 5.53113H31.535C32.3827 5.53113 32.8885 6.03699 32.8885 6.87098V22.498C32.8885 23.332 32.3827 23.8378 31.535 23.8378H4.46472ZM11.1229 30.6738H24.8768C25.4784 30.6738 25.9842 30.1816 25.9842 29.5663C25.9842 28.9511 25.4784 28.4589 24.8768 28.4589H11.1229C10.5214 28.4589 10.0155 28.9511 10.0155 29.5663C10.0155 30.1816 10.5214 30.6738 11.1229 30.6738Z" fill="currentColor"/>
</svg>
